<svg viewBox="0 0 441.27 406.75" xmlns="http://www.w3.org/2000/svg"><g data-name="Layer 2"><g data-name="cake, sweet, dessert, slice, food, meal, fast, restaurant, junk, fastfood"><path d="M441.26 202.07c-.05-1-1.39-24.23-14.86-55.91-12.4-29.09-37.8-71.07-88.7-105.85a34.13 34.13 0 0 0-27.42-4.92 5.39 5.39 0 1 0 2.58 10.47 23.33 23.33 0 0 1 18.76 3.35c48.55 33.18 72.84 73.08 84.67 100.72a189.23 189.23 0 0 1 13.58 47H27l162.36-86.29a5.39 5.39 0 1 0-5.06-9.52L2.86 197.59a2.53 2.53 0 0 0-.27.18l-.34.21c-.17.13-.33.26-.48.4l-.25.23a5.27 5.27 0 0 0-.48.58l-.13.17a5.73 5.73 0 0 0-.46.84c0 .1-.06.19-.1.29a4.88 4.88 0 0 0-.2.65c0 .12 0 .23-.06.35a4.9 4.9 0 0 0-.07.67v199.19a5.39 5.39 0 0 0 5.39 5.39h430.47a5.39 5.39 0 0 0 5.39-5.39v-199a.68.68 0 0 0 0-.14c-.02-.05-.01-.09-.01-.14ZM10.78 396v-51.74H156a5.39 5.39 0 1 0 0-10.78H10.78v-23.7H367.7a5.39 5.39 0 0 0 0-10.78H10.78v-91.26h419.71v30.8H40.1a5.39 5.39 0 1 0 0 10.78h390.39V299h-24.61a5.39 5.39 0 0 0 0 10.78h24.61v23.7H240.42a5.39 5.39 0 1 0 0 10.78h190.07V396Z" fill="#ffffff" class="fill-000000"></path><path d="M198.18 333.48h-3.47a5.39 5.39 0 0 0 0 10.78h3.47a5.39 5.39 0 0 0 0-10.78ZM304.8 94.41A50.71 50.71 0 0 0 262 36.9a52.55 52.55 0 0 0-6.49-.52C257.14 27 261.15 16.83 270 9.56a5.39 5.39 0 1 0-6.84-8.33c-26.62 21.84-18.41 61.65-18 63.34a5.37 5.37 0 0 0 5.26 4.25 5.52 5.52 0 0 0 1.14-.12 5.38 5.38 0 0 0 4.13-6.4 75.2 75.2 0 0 1-1.18-15.14 39.91 39.91 0 0 1 39.65 45.69 39.92 39.92 0 1 1-69-32.64 5.39 5.39 0 1 0-8-7.26 50.7 50.7 0 0 0 30.16 84.28 50.66 50.66 0 0 0 57.48-42.82ZM190.54 157.43a5.39 5.39 0 0 0 .76 7.58l9.92 8.1a5.34 5.34 0 0 0 3.4 1.22 5.39 5.39 0 0 0 3.42-9.57l-9.92-8.09a5.38 5.38 0 0 0-7.58.76ZM130.07 164.35l-7.52 4.65a5.39 5.39 0 1 0 5.65 9.18l7.52-4.63a5.39 5.39 0 0 0-5.65-9.18ZM263.42 160.53l-8.76 6.36a5.39 5.39 0 0 0 6.34 8.72l8.76-6.36a5.39 5.39 0 0 0-6.34-8.72ZM315.33 152.16a5.39 5.39 0 0 0 1.16 7.53l8.68 6.36a5.32 5.32 0 0 0 3.18 1 5.39 5.39 0 0 0 3.19-9.74l-8.68-6.31a5.39 5.39 0 0 0-7.53 1.16ZM361.51 109.34 353 118a5.39 5.39 0 1 0 7.7 7.54l8.5-8.68a5.39 5.39 0 1 0-7.7-7.54ZM336.7 88.59v-9a5.39 5.39 0 1 0-10.77 0v9a5.39 5.39 0 1 0 10.77 0ZM378.06 166.38a5.39 5.39 0 1 0 7.48-7.76l-5.85-5.62a5.39 5.39 0 0 0-7.48 7.76Z" fill="#ffffff" class="fill-000000"></path></g></g></svg>