<svg xmlns="http://www.w3.org/2000/svg" width="330" height="60" viewBox="0 0 220 40">
  <defs>
    <style>
      .cls-1 {
        fill: #193854;
        fill-rule: evenodd;
      }
    </style>
  </defs>
  <path id="CAKE_SHOP" data-name="CAKE SHOP" class="cls-1" d="M16.462,34.91A14.444,14.444,0,0,0,27.133,30.26a0.679,0.679,0,0,0,.208-0.5,0.915,0.915,0,0,0-.415-0.789l-1.661-1.495-0.789-.664a0.787,0.787,0,0,0-.581-0.208,1.175,1.175,0,0,0-.789.332,9.553,9.553,0,0,1-3.031,2.055,9.314,9.314,0,0,1-8.367-.581,9.691,9.691,0,0,1-3.467-3.55,9.811,9.811,0,0,1,0-9.716,9.691,9.691,0,0,1,3.467-3.55,9.071,9.071,0,0,1,4.754-1.308,9.186,9.186,0,0,1,3.8.81A9.437,9.437,0,0,1,23.4,13.361a0.51,0.51,0,0,0,.415.208,0.634,0.634,0,0,0,.457-0.208l2.99-2.574a0.553,0.553,0,0,0,.208-0.457A0.565,0.565,0,0,0,27.3,9.914a14.8,14.8,0,0,0-4.837-3.529,14.21,14.21,0,0,0-6-1.287A14.046,14.046,0,0,0,9.113,7.111a14.9,14.9,0,0,0-5.336,5.439A14.678,14.678,0,0,0,1.805,20,14.922,14.922,0,0,0,9.113,32.917a14.155,14.155,0,0,0,7.349,1.993h0Zm29.605-.374H50.3a0.44,0.44,0,0,0,.5-0.5V33.955l-7.64-27.9a0.856,0.856,0,0,0-.374-0.436,1.014,1.014,0,0,0-.54-0.187H33.32a0.862,0.862,0,0,0-.519.208,0.977,0.977,0,0,0-.353.457l-2.616,9.592a0.581,0.581,0,0,0,.062.5,0.551,0.551,0,0,0,.395.291l3.9,0.955a0.664,0.664,0,0,0,.519-0.041,0.645,0.645,0,0,0,.311-0.374l1.536-5.564a1.042,1.042,0,0,1,.415-0.581,1.1,1.1,0,0,1,.664-0.249h0.291a1.158,1.158,0,0,1,.706.249,1.049,1.049,0,0,1,.415.581l2.325,8.47a0.628,0.628,0,0,1-.1.644,0.749,0.749,0,0,1-.6.27H35.687a0.614,0.614,0,0,0-.477.208,0.669,0.669,0,0,0-.187.457v3.2a0.6,0.6,0,0,0,.187.436,0.646,0.646,0,0,0,.477.187h6.27a1.158,1.158,0,0,1,.706.249,1.268,1.268,0,0,1,.457.623L45.2,33.914a0.9,0.9,0,0,0,.332.436,0.881,0.881,0,0,0,.54.187h0Zm8.262,0h4.484a0.7,0.7,0,0,0,.54-0.228,0.75,0.75,0,0,0,.208-0.519v-8.18a2.987,2.987,0,0,1,.664-1.993L75.34,5.928A0.3,0.3,0,0,0,75.381,5.6a0.59,0.59,0,0,0-.54-0.166H68.9a1.14,1.14,0,0,0-.913.457l-8.429,9.882V6.219a0.765,0.765,0,0,0-.228-0.561,0.718,0.718,0,0,0-.519-0.228H54.33a0.716,0.716,0,0,0-.519.228,0.762,0.762,0,0,0-.228.561v27.57a0.782,0.782,0,0,0,.747.747h0Zm15.944,0h4.235a0.625,0.625,0,0,0,.747-0.581,0.672,0.672,0,0,0-.083-0.291L67.7,23.077a0.732,0.732,0,0,0-.623-0.374,0.718,0.718,0,0,0-.581.332l-0.872,1.038q-0.416.457-.851,0.976T64,25.942a1.286,1.286,0,0,0-.332.789,1.51,1.51,0,0,0,.291.747l4.4,6.27a1.568,1.568,0,0,0,.643.56,3.548,3.548,0,0,0,1.267.228h0Zm9.8-23.958H99.339a0.732,0.732,0,0,0,.56-0.249,0.785,0.785,0,0,0,.228-0.54V6.219A0.716,0.716,0,0,0,99.9,5.7a0.764,0.764,0,0,0-.56-0.228H80.073a0.75,0.75,0,0,0-.519.208,0.7,0.7,0,0,0-.228.54V9.79a0.76,0.76,0,0,0,.228.561,0.714,0.714,0,0,0,.519.228h0Zm0,23.958H99.422a0.7,0.7,0,0,0,.54-0.228,0.751,0.751,0,0,0,.208-0.519V30.218a0.713,0.713,0,0,0-.748-0.747H85.139a0.86,0.86,0,0,1-.789-0.789V24.156a0.809,0.809,0,0,1,.955-0.872H95.893a0.72,0.72,0,0,0,.5-0.187A0.614,0.614,0,0,0,96.6,22.62V19.049a0.615,0.615,0,0,0-.208-0.477,0.72,0.72,0,0,0-.5-0.187H85.429q-1.08,0-1.08-.789v-2.99a0.712,0.712,0,0,0-.747-0.747H80.073a0.751,0.751,0,0,0-.519.208,0.7,0.7,0,0,0-.228.54V33.789a0.782,0.782,0,0,0,.747.747h0Zm51.569-16.11q-1.2-.414-2.927-1.2a21.764,21.764,0,0,1-2.3-1.163,2.584,2.584,0,0,1-1.454-2.159,2.418,2.418,0,0,1,.644-1.557,5.2,5.2,0,0,1,1.765-1.308,8.739,8.739,0,0,1,3.2-.581,10.553,10.553,0,0,1,2.906.415,13.263,13.263,0,0,1,2.948,1.287,0.8,0.8,0,0,0,.416.125,0.506,0.506,0,0,0,.373-0.125l0.5-.706a19.8,19.8,0,0,0,1.412-2.159A0.358,0.358,0,0,0,139.033,9a1.417,1.417,0,0,0-.332-0.374,12.7,12.7,0,0,0-2.408-1.619,13.105,13.105,0,0,0-3.322-1,18.3,18.3,0,0,0-3.9-.249,12.154,12.154,0,0,0-4.858,1.516,9.517,9.517,0,0,0-3.3,3.052,6.809,6.809,0,0,0-.021,7.64,7.228,7.228,0,0,0,2.927,2.3,50.473,50.473,0,0,0,5.128,2.014,33.1,33.1,0,0,1,3.281,1.2,4.4,4.4,0,0,1,1.66,1.121,3.484,3.484,0,0,1,.706,2.035,2.843,2.843,0,0,1-1.308,2.367,5.6,5.6,0,0,1-3.384.955l-1.744-.041a0.7,0.7,0,0,0-.788.664,6.391,6.391,0,0,0-.125.81q-0.042.436-.083,0.768l-0.166,1.2a0.609,0.609,0,0,0,.083.56,0.868,0.868,0,0,0,.581.228,10.593,10.593,0,0,0,1.7.166,13.25,13.25,0,0,0,5.356-1.017,8.4,8.4,0,0,0,3.592-2.8,6.925,6.925,0,0,0,1.266-4.111,6.949,6.949,0,0,0-.934-3.841,6.54,6.54,0,0,0-2.471-2.242,37.971,37.971,0,0,0-4.526-1.889h0Zm5.606-6.311a0.037,0.037,0,0,0-.042.041ZM122.383,28.6l-1.661-.664a0.4,0.4,0,0,0-.581.083q-0.665,1.121-1.038,1.806a2.567,2.567,0,0,0-.374.934,0.566,0.566,0,0,0,.208.332,8.909,8.909,0,0,0,1.91,1.038,0.538,0.538,0,0,0,.456.041,0.5,0.5,0,0,0,.291-0.291l1-2.782a0.417,0.417,0,0,0-.021-0.291,0.543,0.543,0,0,0-.187-0.208h0Zm21.508-3.239h4.318a0.639,0.639,0,0,0,.623-0.623V6.053a0.639,0.639,0,0,0-.623-0.623h-4.318a0.639,0.639,0,0,0-.623.623V24.737a0.639,0.639,0,0,0,.623.623h0Zm15.571,9.176H163.7a0.7,0.7,0,0,0,.54-0.228,0.75,0.75,0,0,0,.207-0.519V6.177A0.782,0.782,0,0,0,163.7,5.43h-4.235a0.783,0.783,0,0,0-.748.747V17.264a0.75,0.75,0,0,1-.207.519,0.7,0.7,0,0,1-.54.228h-5.19a0.749,0.749,0,0,0-.519.208,0.7,0.7,0,0,0-.229.54v3.529a0.783,0.783,0,0,0,.748.747h5.19a0.711,0.711,0,0,1,.747.747V33.789a0.784,0.784,0,0,0,.748.747h0Zm12.788-3.031a13.344,13.344,0,0,0,4.36,2.6,14.689,14.689,0,0,0,5.066.893,15.188,15.188,0,0,0,6.373-1.391,13.37,13.37,0,0,0,5.087-4.007,14.484,14.484,0,0,0,2.574-4.505A15.18,15.18,0,0,0,196.582,20a14.9,14.9,0,0,0-1.993-7.516,1.069,1.069,0,0,0-1-.623,1.189,1.189,0,0,0-.623.208q-0.249.166-1.2,0.83c-0.638.443-1.066,0.734-1.288,0.872a1.222,1.222,0,0,0-.5.955,1.833,1.833,0,0,0,.208.83,9.558,9.558,0,0,1,1.038,4.4,9.775,9.775,0,0,1-.561,3.26,9.249,9.249,0,0,1-1.681,2.927,8.763,8.763,0,0,1-3.239,2.533,9.543,9.543,0,0,1-10.131-1.37,9.275,9.275,0,0,1-2.492-3.3A9.636,9.636,0,0,1,172.25,20a9.512,9.512,0,0,1,2.243-6.187,8.7,8.7,0,0,1,2.864-2.387,9.431,9.431,0,0,1,3.571-1.059A0.819,0.819,0,0,0,181.8,9.5V5.887a1.073,1.073,0,0,0-.27-0.623,0.73,0.73,0,0,0-.56-0.249h-0.083a14.777,14.777,0,0,0-5.772,1.516,15.053,15.053,0,0,0-7.328,8.346,15.345,15.345,0,0,0,.519,11.377,14.814,14.814,0,0,0,3.944,5.253h0Zm27.57,3.031h3.2a0.8,0.8,0,0,0,.56-0.208,0.7,0.7,0,0,0,.228-0.54V24.53a0.6,0.6,0,0,1,.167-0.5,1.1,1.1,0,0,1,.622-0.125H209a8.93,8.93,0,0,0,4.609-1.246,9.337,9.337,0,0,0,3.363-3.363,8.933,8.933,0,0,0,1.245-4.609,9.044,9.044,0,0,0-1.245-4.63,9.288,9.288,0,0,0-3.363-3.384A8.93,8.93,0,0,0,209,5.43H199.82a0.716,0.716,0,0,0-.519.228,0.763,0.763,0,0,0-.228.561v3.82a0.761,0.761,0,0,0,.228.561,0.714,0.714,0,0,0,.519.228H209a3.748,3.748,0,0,1,2.719,1.121,3.7,3.7,0,0,1,1.142,2.74,3.646,3.646,0,0,1-1.142,2.7A3.748,3.748,0,0,1,209,18.509H199.82a0.716,0.716,0,0,0-.519.228,0.764,0.764,0,0,0-.228.561V33.789a0.782,0.782,0,0,0,.747.747h0Z"/>
</svg>
